<?xml version="1.0" encoding="UTF-8" standalone="no"?>
<svg
   xmlns:dc="http://purl.org/dc/elements/1.1/"
   xmlns:cc="http://creativecommons.org/ns#"
   xmlns:rdf="http://www.w3.org/1999/02/22-rdf-syntax-ns#"
   xmlns:svg="http://www.w3.org/2000/svg"
   xmlns="http://www.w3.org/2000/svg"
   viewBox="0 0 333.33334 333.33334"
   height="333.33334"
   width="333.33334"
   xml:space="preserve"
   id="svg2"
   version="1.1"><metadata
     id="metadata8"><rdf:RDF><cc:Work
         rdf:about=""><dc:format>image/svg+xml</dc:format><dc:type
           rdf:resource="http://purl.org/dc/dcmitype/StillImage" /></cc:Work></rdf:RDF></metadata><defs
     id="defs6"><clipPath
       id="clipPath18"
       clipPathUnits="userSpaceOnUse"><path
         id="path16"
         d="M 0,250 H 250 V 0 H 0 Z" /></clipPath><clipPath
       id="clipPath34"
       clipPathUnits="userSpaceOnUse"><path
         id="path32"
         d="M 0,250 H 250 V 0 H 0 Z" /></clipPath><clipPath
       id="clipPath50"
       clipPathUnits="userSpaceOnUse"><path
         id="path48"
         d="M 0,250 H 250 V 0 H 0 Z" /></clipPath><clipPath
       id="clipPath66"
       clipPathUnits="userSpaceOnUse"><path
         id="path64"
         d="M 0,250 H 250 V 0 H 0 Z" /></clipPath><clipPath
       id="clipPath82"
       clipPathUnits="userSpaceOnUse"><path
         id="path80"
         d="M 0,250 H 250 V 0 H 0 Z" /></clipPath><clipPath
       id="clipPath98"
       clipPathUnits="userSpaceOnUse"><path
         id="path96"
         d="M 0,250 H 250 V 0 H 0 Z" /></clipPath><clipPath
       id="clipPath114"
       clipPathUnits="userSpaceOnUse"><path
         id="path112"
         d="M 0,250 H 250 V 0 H 0 Z" /></clipPath><clipPath
       id="clipPath130"
       clipPathUnits="userSpaceOnUse"><path
         id="path128"
         d="M 0,250 H 250 V 0 H 0 Z" /></clipPath><clipPath
       id="clipPath146"
       clipPathUnits="userSpaceOnUse"><path
         id="path144"
         d="M 0,250 H 250 V 0 H 0 Z" /></clipPath><clipPath
       id="clipPath162"
       clipPathUnits="userSpaceOnUse"><path
         id="path160"
         d="M 0,250 H 250 V 0 H 0 Z" /></clipPath><clipPath
       id="clipPath178"
       clipPathUnits="userSpaceOnUse"><path
         id="path176"
         d="M 0,250 H 250 V 0 H 0 Z" /></clipPath><clipPath
       id="clipPath194"
       clipPathUnits="userSpaceOnUse"><path
         id="path192"
         d="M 0,250 H 250 V 0 H 0 Z" /></clipPath></defs><g
     transform="matrix(1.3333333,0,0,-1.3333333,0,333.33333)"
     id="g10"><g
       id="g12"><g
         clip-path="url(#clipPath18)"
         id="g14"><g
           transform="translate(82.7822,118.5439)"
           id="g20"><path
             id="path22"
             style="fill:#ffffff;fill-opacity:1;fill-rule:evenodd;stroke:none"
             d="M 0,0 C 0.482,-0.605 0.842,-1.059 1.317,-1.655 1.501,-1.001 1.629,-0.546 1.783,0 Z m 30.177,-14.334 c -0.565,0.719 -1.061,1.351 -1.587,2.022 -1.314,-0.877 -0.211,-1.68 -0.18,-2.534 0.613,0.179 1.12,0.325 1.767,0.512 M -0.47,-42.436 c -0.469,0.518 -1.152,1.271 -1.963,2.168 -0.397,-0.633 -0.745,-1.189 -1.029,-1.642 1.188,-0.21 2.257,-0.398 2.992,-0.526 M 85.382,-55.58 c -0.148,-1.196 -0.71,-2.316 0.319,-3.065 1.83,-1.33 2.641,-1.164 4.3,0.615 -1.486,0.789 -2.947,1.562 -4.619,2.45 m 33.303,56.611 c -1.787,-0.885 -3.404,-1.686 -4.98,-2.468 0.398,-0.999 0.716,-1.797 0.945,-2.373 1.412,0.075 2.67,0.142 4.035,0.214 z M 0.78,-43.092 c 0.91,-3.62 -1.393,-7.476 -4.381,-8.628 1.395,-1.844 2.927,-3.372 5.548,-2.439 0.191,0.068 0.418,0.029 0.627,0.052 1.978,0.214 3.956,0.429 6.386,0.695 -2.889,3.644 -5.534,6.982 -8.18,10.32 m 15.619,-22.987 c 0.984,3.009 1.851,5.662 2.772,8.481 -4.881,-0.319 -9.669,-0.633 -14.458,-0.947 -0.051,-0.173 -0.102,-0.346 -0.153,-0.52 3.913,-2.317 7.825,-4.638 11.839,-7.014 m 66.459,16.159 c 0.491,-0.301 0.758,-0.487 1.044,-0.639 2.82,-1.506 5.659,-2.974 8.45,-4.527 0.76,-0.424 1.217,-0.348 1.858,0.219 4.595,4.068 8.642,8.612 12.105,13.678 0.248,0.362 0.468,0.743 0.821,1.303 -0.629,-0.064 -1.01,-0.053 -1.363,-0.146 -2.395,-0.639 -4.769,-1.357 -7.18,-1.927 -1.486,-0.35 -2.258,-1.11 -2.14,-2.721 0.211,-0.02 0.463,-0.022 0.703,-0.074 2.246,-0.485 3.145,-2.363 1.913,-4.28 -0.622,-0.97 -1.492,-1.82 -2.385,-2.564 -1.253,-1.038 -2.636,-1.794 -4.094,-0.23 -0.077,0.082 -0.225,0.103 -0.342,0.144 -1.735,0.614 -2.27,1.287 -2.28,3.133 -0.007,0.97 0.155,1.941 0.26,3.145 -2.511,-1.538 -4.863,-2.98 -7.37,-4.514 M 47.942,50.072 c 2.052,1.061 2.343,1.726 1.753,3.897 -1.696,6.244 0.242,11.329 4.987,15.507 0.362,0.319 0.729,0.635 1.156,1.006 -3.96,0.781 -12.794,0.882 -15.091,0.244 2.397,-6.881 4.797,-13.772 7.195,-20.654 M 83.075,-54.431 c -3.454,1.581 -7.263,3.326 -11.181,5.118 -0.323,-0.718 -0.751,-1.265 -0.804,-1.848 -0.526,-5.85 -0.99,-11.706 -1.487,-17.738 0.602,0.182 1.047,0.271 1.456,0.448 3.189,1.4 6.368,2.825 9.557,4.227 1.435,0.63 2.637,1.401 2.705,3.21 0.018,0.476 0.383,0.927 0.514,1.41 0.09,0.334 0.12,0.717 0.06,1.055 -0.224,1.264 -0.497,2.521 -0.82,4.118 m -84.28,39.122 c 3.098,-3.846 6.273,-7.806 9.488,-11.735 0.163,-0.199 0.737,-0.273 0.996,-0.15 3.717,1.777 7.418,3.587 11.107,5.417 0.763,0.379 1.079,1.001 1.06,1.946 -0.074,3.7 1.48,5.82 4.915,7.045 0.43,0.153 0.756,0.6 1.13,0.909 -0.058,0.178 -0.116,0.357 -0.174,0.535 -1.713,-1.895 -3.336,-1.447 -4.958,-0.161 1.24,1.51 2.522,1.715 4.115,0.758 0.459,-0.276 1.004,-0.411 1.73,-0.697 -0.127,0.481 -0.123,0.578 -0.17,0.628 C 23.243,-5.783 18.457,-0.748 13.633,4.25 13.416,4.474 12.84,4.452 12.454,4.395 11.464,4.248 10.481,4.048 9.511,3.808 9.018,3.685 8.529,3.478 8.089,3.223 6.572,2.348 5.066,1.453 3.582,0.525 3.202,0.289 2.81,-0.041 2.609,-0.426 2.325,-0.968 2.213,-1.601 2.024,-2.207 4.263,-2.499 6.077,-3.504 6.889,-5.573 7.721,-7.694 6.474,-9.381 5.12,-10.904 4.73,-11.343 4.322,-11.797 3.838,-12.118 2.271,-13.154 0.665,-14.132 -1.205,-15.309 m 90.776,-0.388 c 1.453,-1.577 2.075,-1.655 3.634,-0.452 6.092,4.696 14.273,3.382 18.79,-3.076 -2.123,-1.613 -4.404,-2.93 -6.957,-3.727 -5.147,-1.607 -9.334,-0.306 -12.857,3.92 -0.218,0.262 -0.564,0.468 -0.892,0.58 -1.252,0.431 -2.52,0.814 -4.15,1.331 -3.521,-2.669 -7.391,-5.582 -11.217,-8.552 -0.308,-0.238 -0.418,-0.862 -0.444,-1.315 -0.241,-4.371 -0.346,-8.751 -0.702,-13.112 -0.155,-1.894 -0.801,-3.75 -1.231,-5.652 1.967,-0.88 3.872,-1.729 5.751,-2.57 0.605,0.826 0.605,0.826 0.147,1.712 -1.45,2.807 -0.066,6.553 2.881,7.799 1.852,-3.406 1.613,-5.331 -0.966,-8.298 3.909,1.989 7.92,3.993 11.892,6.074 1.177,0.616 1.674,1.937 1.243,2.732 -2.016,3.708 -0.549,8.198 3.311,10.12 2.666,-4.227 1.732,-8.507 -1.76,-10.649 -0.314,-0.191 -0.447,-0.675 -0.663,-1.022 0.63,-0.032 1.054,0.13 1.479,0.285 3.568,1.309 7.178,2.467 11.005,2.656 0.928,0.048 1.418,0.386 1.851,1.172 3.14,5.716 5.517,11.726 7.057,18.061 0.354,1.45 0.606,2.925 0.9,4.361 -1.14,0 -2.121,0.171 -3.014,-0.037 -1.506,-0.352 -2.663,0.051 -3.617,1.168 -1.099,1.284 -1.734,2.783 -1.84,4.479 -0.2,3.166 1.461,4.516 4.562,3.735 0.048,-0.012 0.122,0.077 0.282,0.183 -0.331,0.645 -0.666,1.297 -0.99,1.929 -3.823,-1.426 -21.192,-11.685 -23.485,-13.835 M 27.004,-37.775 c -2.978,-0.573 -5.664,-0.896 -8.228,-1.639 -2.653,-0.769 -5.203,-1.903 -7.769,-2.949 -2.3,-0.939 -4.159,-0.465 -5.742,1.441 -2.101,2.527 -4.362,4.928 -6.349,7.54 -1.47,1.93 -2.77,4.032 -3.854,6.202 -0.886,1.775 -1.564,3.727 -1.911,5.675 -0.244,1.382 -0.529,2.557 -1.475,3.628 -2.572,2.91 -5.033,5.874 -5.837,9.874 -0.57,2.837 1.112,6.708 3.676,7.763 0.445,0.184 1.182,0.236 1.495,-0.014 0.258,-0.206 0.116,-0.949 0.093,-1.452 -0.013,-0.275 -0.147,-0.545 -0.217,-0.787 0.414,-0.289 0.767,-0.535 0.871,-0.607 1.245,1.456 2.459,2.875 3.515,4.111 -2.138,1.553 -4.47,3.248 -6.923,5.031 0.708,0.583 1.149,0.964 1.609,1.322 5.777,4.489 12.753,4.103 17.71,-0.975 1.391,-1.427 2.005,-1.442 3.757,-0.02 -0.371,0.348 -0.711,0.71 -1.093,1.021 -6.251,5.065 -12.498,10.137 -18.772,15.174 -1.424,1.143 -2.032,0.852 -2.434,-1.024 0.424,0 0.844,0.029 1.259,-0.005 1.859,-0.15 3.056,-1.436 2.913,-3.291 -0.177,-2.295 -1.14,-4.273 -3.091,-5.534 -0.725,-0.469 -1.793,-0.511 -2.712,-0.546 -0.713,-0.027 -1.484,0.156 -2.145,0.44 -0.677,0.291 -1.481,0.681 -1.829,1.267 -1.065,1.791 -1.302,3.818 -1.008,5.867 0.267,1.86 1.374,2.737 3.244,2.571 0.837,-0.075 1.653,-0.401 2.506,-0.62 0.392,0.685 0.828,1.447 1.332,2.325 -2.616,1.783 -5.239,3.572 -7.885,5.376 -5.886,-12.185 -8.355,-27.722 -5.502,-43.207 2.078,-11.275 6.635,-21.463 13.726,-30.729 0.303,1.545 0.629,2.992 2.151,3.19 1.204,0.157 2.478,-0.233 3.85,-0.393 0.26,0.478 0.677,1.239 1.133,2.073 -0.604,0.528 -1.233,1.019 -1.796,1.579 -0.821,0.816 -0.876,2.385 -0.091,3.112 0.954,0.885 1.657,0.206 2.374,-0.448 5.598,-5.104 10.441,-10.881 15.041,-16.873 0.457,-0.595 0.904,-0.871 1.673,-0.811 1.89,0.146 3.79,0.167 5.678,0.336 0.386,0.034 0.939,0.413 1.068,0.763 0.744,2.007 1.341,4.071 2.07,6.084 0.54,1.492 1.151,2.961 1.831,4.395 0.567,1.194 1.279,2.32 2.088,3.764 M 37.082,70.46 C 24.958,68.763 13.923,64.296 4.061,56.96 -4.827,50.35 -11.806,42.117 -16.774,32.596 -10.37,28.129 -4.127,23.775 2.103,19.428 c 1.013,2.267 0.92,2.68 -0.99,4.241 -0.26,0.213 -0.517,0.432 -0.767,0.659 -6.734,6.131 -5.089,15.341 -1.788,19.951 2.64,-2.211 5.025,-4.636 6.524,-7.788 C 7.098,32.253 7.155,28.019 4.749,23.917 4.168,22.925 3.92,22.053 4.587,20.578 4.869,21.23 5.125,21.576 5.16,21.945 5.434,24.884 7.82,26.593 10.775,25.93 10.866,22.525 9.367,20.935 5.971,20.639 5.376,20.587 4.485,20.105 4.339,19.633 4.096,18.851 3.601,17.968 4.696,17.07 8.867,13.648 12.908,10.069 17.002,6.554 c 0.204,-0.175 0.446,-0.306 0.853,-0.581 0.561,2.937 1.087,5.694 1.664,8.711 -0.771,-0.481 -1.199,-0.9 -1.7,-1.028 -1.194,-0.305 -2.554,-0.9 -3.603,-0.579 -1.155,0.354 -2.057,1.58 -3.024,2.475 -0.172,0.158 -0.173,0.555 -0.171,0.841 0.018,2.107 0.738,3.97 2.127,5.535 1.036,1.166 2.247,1.281 3.483,0.349 0.574,-0.432 1.012,-1.044 1.496,-1.558 1.563,0.402 1.904,1.555 1.63,3.056 -0.068,0.37 -0.041,0.757 -0.064,1.136 -0.072,1.269 0.927,1.088 1.66,1.18 0.719,0.089 1.353,-0.013 1.313,-1.024 -0.047,-1.198 -0.011,-2.399 -0.011,-3.599 0.134,-0.039 0.268,-0.078 0.403,-0.117 0.239,0.469 0.564,0.915 0.704,1.412 1.146,4.094 5.445,6.344 9.448,4.917 -0.955,-4.306 -3.908,-6.898 -7.625,-6.693 -1.867,0.103 -2.272,-0.12 -2.958,-1.795 -0.153,-0.373 -0.122,-0.824 -0.166,-1.24 -0.217,-2.054 -0.391,-4.112 -0.659,-6.158 -0.303,-2.322 -0.69,-4.633 -1.097,-7.32 1.839,4.355 4.344,5.768 7.919,4.741 C 27.909,5.65 25.292,3.512 22.113,3.833 21.691,3.876 21.239,3.618 20.801,3.498 c 0.191,-0.406 0.294,-0.892 0.583,-1.207 3.708,-4.035 7.427,-8.059 11.178,-12.055 1.006,-1.072 2.104,-2.064 3.213,-3.034 0.266,-0.233 0.766,-0.371 1.113,-0.306 1.756,0.331 3.654,2.347 3.985,4.108 0.189,1.004 0.633,1.41 1.825,1.335 1.635,-0.102 3.297,0.222 4.947,0.363 -0.116,1.063 -0.393,1.305 -1.204,1.126 -1.405,-0.31 -2.694,0.556 -3.071,1.946 -0.317,1.168 -0.496,2.378 -0.872,3.526 -0.162,0.495 -0.594,0.981 -1.033,1.286 -0.694,0.483 -0.926,1.041 -0.727,1.834 0.204,0.815 0.419,1.63 0.576,2.455 0.059,0.307 0.095,0.802 -0.077,0.939 -1.132,0.905 -0.68,1.961 -0.373,3.005 0.638,2.172 0.268,2.95 -2.556,2.809 -0.403,-0.021 -0.789,-0.329 -1.195,-0.361 -0.46,-0.037 -1.119,-0.078 -1.349,0.184 -0.245,0.279 -0.293,1.052 -0.075,1.362 0.721,1.024 1.493,2.062 2.439,2.867 3.456,2.944 7.425,4.887 12.062,5.735 -0.502,2.942 -1.025,5.876 -1.49,8.818 -0.157,1.003 -0.424,1.667 -1.637,1.774 -0.7,0.063 -1.338,0.667 -2.037,0.945 -0.55,0.219 -1.165,0.482 -1.726,0.435 -7.544,-0.634 -14.408,6.17 -13.859,13.786 7.758,1.289 14.324,-3.345 15.474,-10.922 0.306,-2.011 0.997,-2.513 3.084,-2.165 -0.755,3.157 -1.414,6.335 -2.285,9.453 -1.437,5.147 -3.001,10.258 -4.535,15.377 -0.454,1.515 -0.595,1.555 -1.991,0.922 -0.252,-0.115 -0.477,-0.292 -0.745,-0.46 2.957,-1.474 3.334,-4.001 0.807,-5.989 -1.022,-0.804 -2.321,-1.398 -3.587,-1.706 -0.94,-0.23 -2.252,-0.171 -3,0.34 -1.193,0.816 -2.065,2.107 -3.047,3.222 -0.112,0.128 -0.091,0.411 -0.068,0.616 0.279,2.526 1.235,4.729 3.262,6.334 1.11,0.879 2.258,0.851 3.354,-0.074 0.714,-0.604 1.274,-1.39 1.932,-2.127 0.697,0.323 1.487,0.689 2.38,1.102 -1.123,3.1 -2.235,6.169 -3.394,9.364 m 63.499,-74.588 c 5.903,2.929 11.638,5.762 17.345,8.648 0.308,0.156 0.577,0.786 0.543,1.167 -0.164,1.845 -0.385,3.688 -0.68,5.517 -4.522,27.937 -26.125,51.229 -53.651,57.856 -1.285,0.309 -2.583,0.557 -3.966,0.853 0.14,-1.163 0.263,-2.117 0.366,-3.074 0.705,-6.577 -2.399,-12.417 -7.925,-14.724 -1.05,-0.439 -1.623,-1.071 -1.966,-2.459 0.516,0.209 0.901,0.248 1.096,0.462 2.168,2.368 4.838,2.467 7.096,0.23 -1.822,-2.807 -4.235,-3.323 -6.962,-1.607 -0.511,0.322 -1.5,0.528 -1.895,0.253 -0.75,-0.524 -1.665,-1.024 -1.256,-2.48 1.279,-4.578 2.326,-9.22 3.458,-13.84 0.202,-0.831 0.376,-1.67 0.631,-2.816 2.257,2.149 4.29,4.083 6.307,6.003 -1.485,0.36 -2.732,0.56 -3.901,0.977 -0.947,0.339 -1.568,1.096 -1.662,2.194 -0.049,0.571 -0.281,1.134 -0.281,1.7 0,0.625 -0.032,1.406 0.305,1.848 1.263,1.656 2.968,2.731 5.043,3.111 1.301,0.239 2.261,-0.272 2.707,-1.516 0.273,-0.764 0.336,-1.603 0.485,-2.362 1.286,-0.439 2.234,-0.11 2.853,1.175 0.44,0.913 1.252,0.789 1.932,0.332 0.689,-0.464 1.237,-1.058 0.457,-1.96 -0.457,-0.525 -0.807,-1.142 -1.205,-1.718 0.058,-0.085 0.117,-0.169 0.175,-0.253 0.456,0.214 0.976,0.349 1.358,0.657 3.415,2.753 8.069,2.176 10.856,-1.588 -1.338,-0.671 -2.584,-1.472 -3.943,-1.938 -2.239,-0.766 -4.542,-0.62 -6.264,1.111 -1.138,1.144 -2.054,1.171 -3.23,0.387 -0.372,-0.248 -0.724,-0.544 -1.026,-0.872 -2.403,-2.6 -4.779,-5.225 -7.195,-7.811 -0.414,-0.443 -0.982,-0.744 -1.477,-1.11 0.096,-0.095 0.192,-0.19 0.288,-0.284 4.013,1.347 6.135,0.934 8.181,-1.592 -2.605,-2.581 -5.843,-2.711 -8.675,-0.385 -0.244,0.2 -0.733,0.352 -0.967,0.238 -0.22,-0.106 -0.381,-0.614 -0.342,-0.917 0.157,-1.24 0.401,-2.469 0.608,-3.676 1.583,-0.123 3.062,-0.152 4.512,-0.374 1.45,-0.22 2.903,-0.533 4.299,-0.98 3.8,-1.217 6.112,-4.561 5.715,-8.508 -0.165,-1.64 -0.785,-3.25 -1.313,-4.835 -0.49,-1.473 -1.197,-2.874 -1.67,-4.352 -0.139,-0.431 0.03,-1.164 0.339,-1.504 2.171,-2.389 2.524,-5.08 1.371,-7.982 -0.468,-1.176 -0.474,-2.069 0.617,-2.84 0.375,-0.265 0.681,-0.627 1.029,-0.934 2.795,-2.483 4.627,-5.536 5.466,-9.183 0.098,-0.428 0.222,-0.847 0.358,-1.358 1.562,1.154 3.024,2.22 4.457,3.32 0.222,0.172 0.499,0.655 0.425,0.76 -0.212,0.297 -0.577,0.631 -0.912,0.665 -3.808,0.415 -5.791,2.467 -5.99,6.377 1.731,0.068 3.336,-0.26 4.769,-1.273 1.497,-1.056 1.927,-2.707 2.238,-4.072 0.144,4.33 0.296,8.918 0.448,13.507 0.059,1.76 -0.796,2.733 -2.505,2.854 -3.817,0.271 -7.099,4.19 -6.625,7.909 4.773,0.304 7.748,-2.045 8.505,-6.664 0.073,-0.441 0.411,-0.839 0.504,-1.019 1.132,3.947 2.217,7.913 3.429,11.839 0.302,0.977 0.927,1.895 1.562,2.715 0.659,0.849 1.435,0.689 1.797,-0.333 0.149,-0.417 0.052,-0.972 -0.074,-1.426 C 85.935,10.232 84.924,6.543 83.821,2.881 83.36,1.349 83.598,0.217 85.095,-0.512 c 0.941,1.254 2.206,1.985 3.258,1.776 1.369,-0.271 1.982,-1.352 2.417,-2.521 0.292,-0.783 0.506,-1.608 0.647,-2.432 0.36,-2.108 0.092,-2.615 -1.788,-3.71 -0.108,-0.061 -0.207,-0.139 -0.3,-0.221 -1.498,-1.316 -2.454,-1.452 -4.176,-0.453 -0.767,0.446 -1.45,1.039 -2.067,1.489 v -8.589 c 0.529,0.316 0.778,0.458 1.02,0.612 4.488,2.832 8.931,5.739 13.489,8.454 1.265,0.754 1.119,1.737 0.884,2.64 -0.131,0.51 -1.032,1.049 -1.663,1.163 -3.023,0.549 -4.629,3.132 -3.646,6.062 3.401,-0.319 4.908,-1.95 4.832,-5.168 -0.008,-0.294 0.292,-0.595 0.529,-1.045 0.726,1.337 0.593,2.269 0.134,3.317 -0.447,1.022 -0.714,2.173 -0.81,3.289 -0.542,6.355 3.931,13.266 10.104,15.729 2.801,-6.262 2.353,-15.742 -6.465,-20.316 -0.85,-0.441 -1.207,-0.987 -1.128,-1.879 0.055,-0.62 0.146,-1.238 0.215,-1.813 m -131.967,3.417 c 0.065,43.207 35.247,78.323 78.36,78.212 43.252,-0.111 78.3,-35.233 78.194,-78.363 -0.108,-43.28 -35.263,-78.183 -78.371,-78.107 -43.165,0.074 -78.247,35.183 -78.183,78.258" /></g></g></g><text
       id="text26"
       style="font-variant:normal;font-weight:normal;font-stretch:normal;font-size:29.51818085px;font-family:'Plantagenet Cherokee';-inkscape-font-specification:PlantagenetCherokee;writing-mode:lr-tb;fill:#ffffff;fill-opacity:1;fill-rule:nonzero;stroke:none"
       transform="matrix(0.28882199,0.95738282,0.95738282,-0.28882199,40.0704,132.2466)"><tspan
         id="tspan24"
         y="0"
         x="0">M</tspan></text>
<g
       id="g28"><g
         clip-path="url(#clipPath34)"
         id="g30"><g
           transform="translate(37.4219,136.9897)"
           id="g36"><path
             id="path38"
             style="fill:none;stroke:#ffffff;stroke-width:0.5;stroke-linecap:butt;stroke-linejoin:miter;stroke-miterlimit:10;stroke-dasharray:none;stroke-opacity:1"
             d="M 0,0 C 0.671,-0.203 1.183,-0.402 1.535,-0.599 1.888,-0.795 2.128,-1.021 2.257,-1.276 2.386,-1.529 2.435,-1.833 2.404,-2.185 2.373,-2.537 2.312,-2.965 2.22,-3.47 2.202,-3.595 2.23,-3.698 2.304,-3.78 c 0.074,-0.084 0.169,-0.138 0.285,-0.161 0.116,-0.026 0.228,-0.023 0.337,0.01 0.109,0.033 0.177,0.094 0.204,0.187 0.114,0.377 0.218,0.854 0.313,1.433 0.094,0.579 0.247,1.222 0.462,1.932 C 4.11,0.3 4.325,0.881 4.55,1.36 4.774,1.839 4.949,2.286 5.075,2.7 5.108,2.81 5.086,2.902 5.009,2.976 4.933,3.048 4.837,3.103 4.725,3.137 4.611,3.17 4.502,3.178 4.397,3.161 4.293,3.141 4.218,3.088 4.172,3.002 3.987,2.586 3.811,2.228 3.645,1.927 3.478,1.625 3.269,1.395 3.014,1.236 2.76,1.077 2.427,0.997 2.015,0.996 1.603,0.995 1.06,1.096 0.388,1.298 l -10.525,3.176 c -0.156,0.047 -0.207,0.13 -0.152,0.249 0.057,0.118 0.141,0.18 0.253,0.187 L 6.082,6.837 C 6.143,6.838 6.199,6.876 6.252,6.952 6.305,7.025 6.345,7.111 6.375,7.208 6.403,7.305 6.417,7.399 6.414,7.49 6.411,7.581 6.385,7.643 6.335,7.679 5.625,8.184 4.919,8.69 4.22,9.198 3.52,9.705 2.881,10.201 2.305,10.687 l -8.348,6.959 c -0.1,0.07 -0.131,0.182 -0.094,0.337 0.036,0.154 0.119,0.212 0.248,0.174 L 4.609,14.99 C 5.226,14.803 5.699,14.623 6.028,14.449 6.357,14.274 6.586,14.059 6.715,13.804 6.844,13.55 6.9,13.237 6.884,12.866 6.868,12.494 6.798,12.006 6.675,11.4 c -0.014,-0.115 0.019,-0.218 0.1,-0.309 0.082,-0.09 0.18,-0.151 0.293,-0.186 0.114,-0.033 0.224,-0.035 0.333,-0.002 0.108,0.032 0.18,0.104 0.213,0.214 0.189,0.625 0.361,1.328 0.516,2.11 0.156,0.78 0.341,1.53 0.558,2.249 0.205,0.68 0.449,1.355 0.731,2.022 0.281,0.667 0.535,1.375 0.759,2.119 0.042,0.138 0.027,0.253 -0.044,0.344 -0.071,0.092 -0.163,0.156 -0.277,0.189 -0.113,0.036 -0.23,0.035 -0.349,0 C 9.389,20.116 9.304,20.046 9.252,19.941 9.025,19.389 8.814,18.945 8.618,18.613 8.422,18.281 8.201,18.043 7.952,17.903 7.704,17.762 7.395,17.708 7.022,17.739 6.65,17.77 6.156,17.879 5.54,18.066 l -10.432,3.147 c -0.901,0.272 -1.593,0.499 -2.074,0.686 -0.481,0.184 -0.822,0.401 -1.024,0.647 -0.201,0.247 -0.297,0.564 -0.285,0.952 0.011,0.388 0.058,0.916 0.14,1.584 0.011,0.107 -0.022,0.202 -0.097,0.285 -0.078,0.084 -0.174,0.142 -0.291,0.178 -0.117,0.035 -0.229,0.044 -0.336,0.026 -0.107,-0.018 -0.179,-0.087 -0.215,-0.206 -0.114,-0.377 -0.256,-0.884 -0.428,-1.519 -0.172,-0.637 -0.336,-1.264 -0.493,-1.885 -0.157,-0.619 -0.282,-1.166 -0.375,-1.639 -0.092,-0.475 -0.105,-0.732 -0.037,-0.773 L 1.368,9.825 C 1.412,9.771 1.427,9.721 1.413,9.676 1.399,9.63 1.359,9.596 1.293,9.576 L -13.92,7.903 c -0.079,0.004 -0.182,-0.118 -0.307,-0.366 -0.125,-0.249 -0.258,-0.558 -0.399,-0.927 -0.142,-0.368 -0.287,-0.783 -0.437,-1.245 -0.149,-0.463 -0.293,-0.907 -0.433,-1.337 -0.139,-0.43 -0.263,-0.82 -0.368,-1.169 -0.105,-0.349 -0.183,-0.607 -0.233,-0.773 -0.033,-0.11 -0.013,-0.213 0.059,-0.311 0.073,-0.097 0.167,-0.164 0.284,-0.199 0.117,-0.034 0.237,-0.034 0.36,0.005 0.123,0.038 0.202,0.111 0.236,0.222 0.183,0.476 0.358,0.865 0.524,1.167 0.167,0.3 0.369,0.523 0.608,0.666 0.239,0.144 0.53,0.21 0.873,0.197 0.342,-0.013 0.798,-0.106 1.368,-0.278 z" /></g></g></g><text
       id="text42"
       style="font-variant:normal;font-weight:normal;font-stretch:normal;font-size:29.51815033px;font-family:'Plantagenet Cherokee';-inkscape-font-specification:PlantagenetCherokee;writing-mode:lr-tb;fill:#ffffff;fill-opacity:1;fill-rule:nonzero;stroke:none"
       transform="matrix(0.54802552,0.83646161,0.83646161,-0.54802552,48.8035,159.1222)"><tspan
         id="tspan40"
         y="0"
         x="0">A</tspan></text>
<g
       id="g44"><g
         clip-path="url(#clipPath50)"
         id="g46"><g
           transform="translate(49.6631,173.1367)"
           id="g52"><path
             id="path54"
             style="fill:none;stroke:#ffffff;stroke-width:0.5;stroke-linecap:butt;stroke-linejoin:miter;stroke-miterlimit:10;stroke-dasharray:none;stroke-opacity:1"
             d="M 0,0 C 0.205,0.314 0.382,0.522 0.53,0.626 0.679,0.729 0.889,0.75 1.159,0.688 1.942,0.531 2.584,0.394 3.085,0.28 3.584,0.165 3.99,0.062 4.301,-0.026 4.611,-0.115 4.848,-0.196 5.014,-0.27 5.178,-0.343 5.317,-0.416 5.43,-0.49 5.849,-0.765 6.036,-1.077 5.991,-1.426 5.951,-1.769 5.784,-2.245 5.487,-2.854 5.424,-2.985 5.412,-3.098 5.452,-3.193 c 0.04,-0.095 0.107,-0.174 0.202,-0.236 0.119,-0.078 0.242,-0.115 0.368,-0.112 0.127,0.003 0.227,0.061 0.301,0.173 0.368,0.562 0.718,1.167 1.049,1.812 0.33,0.645 0.725,1.318 1.183,2.017 0.2,0.305 0.397,0.588 0.593,0.852 0.195,0.262 0.387,0.504 0.578,0.724 0.195,0.228 0.384,0.463 0.566,0.706 0.182,0.243 0.356,0.492 0.525,0.749 0.058,0.088 0.06,0.179 0.008,0.27 -0.053,0.092 -0.131,0.173 -0.234,0.24 -0.094,0.063 -0.2,0.101 -0.317,0.113 C 10.158,4.128 10.061,4.091 9.981,4.006 9.786,3.813 9.599,3.63 9.418,3.461 9.238,3.292 9.017,3.155 8.754,3.053 8.49,2.949 8.168,2.89 7.785,2.877 7.403,2.863 6.911,2.915 6.311,3.033 4.921,3.3 3.452,3.588 1.901,3.897 c -1.55,0.31 -3.108,0.625 -4.671,0.95 -1.564,0.325 -3.101,0.645 -4.612,0.963 -1.51,0.317 -2.927,0.616 -4.249,0.897 -0.226,-0.047 -0.413,-0.184 -0.56,-0.408 -0.142,-0.217 -0.162,-0.394 -0.056,-0.533 l 10.398,-14.79 c 0.319,-0.462 0.561,-0.861 0.724,-1.199 0.164,-0.337 0.268,-0.646 0.308,-0.924 0.041,-0.28 0.038,-0.545 -0.011,-0.794 -0.049,-0.25 -0.127,-0.518 -0.234,-0.804 l -0.196,-0.405 c -0.053,-0.115 -0.058,-0.218 -0.015,-0.309 0.042,-0.091 0.106,-0.164 0.194,-0.222 0.11,-0.073 0.232,-0.111 0.364,-0.118 0.132,-0.007 0.229,0.039 0.292,0.136 0.3,0.458 0.549,0.907 0.746,1.347 0.196,0.441 0.433,0.873 0.712,1.298 0.148,0.226 0.313,0.456 0.496,0.692 0.184,0.236 0.367,0.469 0.553,0.698 0.184,0.23 0.363,0.454 0.535,0.675 0.173,0.219 0.323,0.425 0.45,0.62 0.078,0.119 0.09,0.232 0.035,0.337 C 3.048,-7.891 2.969,-7.804 2.866,-7.737 2.771,-7.673 2.664,-7.639 2.545,-7.629 2.427,-7.621 2.328,-7.677 2.249,-7.797 2.074,-8.028 1.89,-8.245 1.692,-8.449 1.496,-8.654 1.293,-8.816 1.086,-8.939 0.879,-9.062 0.667,-9.13 0.451,-9.144 0.235,-9.157 0.022,-9.095 -0.187,-8.958 -0.3,-8.885 -0.46,-8.717 -0.668,-8.453 l -2.186,3.016 c -0.132,0.203 -0.203,0.377 -0.209,0.525 -0.007,0.148 0.064,0.334 0.211,0.56 z m -3.635,-3.443 c -0.12,-0.185 -0.237,-0.287 -0.347,-0.307 -0.11,-0.019 -0.244,0.08 -0.4,0.297 L -8.68,2.585 c -0.067,0.09 -0.07,0.184 -0.006,0.279 0.063,0.097 0.149,0.133 0.259,0.107 L -1.238,1.346 C -0.993,1.298 -0.859,1.208 -0.838,1.075 -0.817,0.94 -0.881,0.761 -1.027,0.536 Z" /></g></g></g><text
       id="text58"
       style="font-variant:normal;font-weight:normal;font-stretch:normal;font-size:29.51813698px;font-family:'Plantagenet Cherokee';-inkscape-font-specification:PlantagenetCherokee;writing-mode:lr-tb;fill:#ffffff;fill-opacity:1;fill-rule:nonzero;stroke:none"
       transform="matrix(0.74090719,0.67160743,0.67160743,-0.74090719,61.3413,178.0703)"><tspan
         id="tspan56"
         y="0"
         x="0">G</tspan></text>
<g
       id="g60"><g
         clip-path="url(#clipPath66)"
         id="g62"><g
           transform="translate(72.29,194.9204)"
           id="g68"><path
             id="path70"
             style="fill:none;stroke:#ffffff;stroke-width:0.5;stroke-linecap:butt;stroke-linejoin:miter;stroke-miterlimit:10;stroke-dasharray:none;stroke-opacity:1"
             d="M 0,0 C -0.251,0.278 -0.46,0.523 -0.627,0.735 -0.793,0.947 -0.896,1.153 -0.933,1.352 -0.971,1.55 -0.937,1.768 -0.83,2 c 0.106,0.233 0.307,0.508 0.601,0.828 0.081,0.097 0.113,0.198 0.097,0.301 -0.015,0.103 -0.06,0.196 -0.134,0.277 C -0.34,3.488 -0.424,3.544 -0.518,3.577 -0.612,3.608 -0.694,3.593 -0.766,3.527 -1.057,3.262 -1.311,3.02 -1.526,2.799 -1.74,2.579 -1.942,2.376 -2.132,2.191 -2.321,2.006 -2.5,1.825 -2.669,1.646 -2.837,1.467 -3.025,1.285 -3.231,1.098 -3.651,0.717 -4.152,0.295 -4.732,-0.166 c -0.581,-0.46 -1.127,-0.924 -1.64,-1.388 -0.071,-0.065 -0.099,-0.149 -0.084,-0.251 0.016,-0.103 0.06,-0.196 0.135,-0.277 0.074,-0.083 0.165,-0.14 0.272,-0.172 0.108,-0.033 0.211,-0.003 0.311,0.087 0.479,0.356 0.881,0.637 1.204,0.839 0.323,0.201 0.624,0.309 0.903,0.323 0.279,0.013 0.561,-0.079 0.844,-0.276 0.283,-0.198 0.621,-0.514 1.015,-0.948 0.503,-0.556 0.827,-1.095 0.971,-1.619 0.145,-0.524 0.145,-1.037 0.001,-1.536 -0.143,-0.5 -0.413,-1 -0.808,-1.501 -0.395,-0.501 -0.878,-1.009 -1.448,-1.526 -0.789,-0.716 -1.635,-1.178 -2.537,-1.385 -0.901,-0.208 -1.841,-0.191 -2.818,0.05 -0.979,0.243 -1.965,0.702 -2.964,1.381 -0.997,0.678 -1.976,1.547 -2.938,2.609 -0.69,0.76 -1.291,1.607 -1.804,2.536 -0.511,0.93 -0.851,1.877 -1.018,2.842 -0.167,0.963 -0.119,1.908 0.144,2.834 0.262,0.926 0.818,1.773 1.665,2.542 1.367,1.237 2.799,1.92 4.294,2.043 1.496,0.124 2.925,-0.358 4.287,-1.444 0.091,-0.073 0.196,-0.089 0.313,-0.047 0.118,0.042 0.215,0.111 0.291,0.206 0.077,0.094 0.124,0.202 0.144,0.324 0.019,0.122 -0.007,0.222 -0.077,0.299 -0.717,0.648 -1.404,1.298 -2.063,1.954 -0.658,0.655 -1.172,1.313 -1.54,1.979 -0.045,0.076 -0.111,0.106 -0.2,0.091 -0.089,-0.016 -0.178,-0.059 -0.267,-0.125 -0.087,-0.068 -0.158,-0.151 -0.21,-0.249 -0.053,-0.1 -0.051,-0.196 0.005,-0.286 0.159,-0.389 0.121,-0.666 -0.111,-0.831 -0.233,-0.166 -0.566,-0.303 -1,-0.411 -0.765,-0.187 -1.546,-0.477 -2.344,-0.87 -0.798,-0.392 -1.56,-0.918 -2.286,-1.577 -1.11,-1.006 -1.984,-2.103 -2.621,-3.289 -0.637,-1.186 -1.001,-2.419 -1.095,-3.696 -0.092,-1.278 0.105,-2.573 0.596,-3.886 0.489,-1.314 1.296,-2.589 2.419,-3.828 1.097,-1.211 2.238,-2.141 3.424,-2.791 1.186,-0.649 2.386,-1.015 3.599,-1.095 1.215,-0.079 2.439,0.128 3.674,0.626 1.236,0.498 2.451,1.288 3.647,2.372 0.833,0.755 1.51,1.439 2.03,2.054 0.519,0.613 0.933,1.198 1.239,1.755 0.305,0.557 0.53,1.107 0.673,1.652 0.142,0.543 0.278,1.121 0.411,1.733 0.046,0.107 0.017,0.217 -0.086,0.332 z" /></g></g></g><text
       id="text74"
       style="font-variant:normal;font-weight:normal;font-stretch:normal;font-size:29.51816368px;font-family:'Plantagenet Cherokee';-inkscape-font-specification:PlantagenetCherokee;writing-mode:lr-tb;fill:#ffffff;fill-opacity:1;fill-rule:nonzero;stroke:none"
       transform="matrix(0.88937443,0.45717952,0.45717952,-0.88937443,78.305,193.4211)"><tspan
         id="tspan72"
         y="0"
         x="0">N</tspan></text>
<g
       id="g76"><g
         clip-path="url(#clipPath82)"
         id="g78"><g
           transform="translate(79.8667,198.6426)"
           id="g84"><path
             id="path86"
             style="fill:none;stroke:#ffffff;stroke-width:0.5;stroke-linecap:butt;stroke-linejoin:miter;stroke-miterlimit:10;stroke-dasharray:none;stroke-opacity:1"
             d="m 0,0 c 0.32,-0.623 0.531,-1.127 0.632,-1.512 0.1,-0.385 0.104,-0.712 0.01,-0.982 -0.094,-0.269 -0.279,-0.513 -0.557,-0.731 -0.276,-0.218 -0.628,-0.468 -1.055,-0.753 -0.102,-0.073 -0.155,-0.167 -0.156,-0.277 -0.003,-0.111 0.021,-0.214 0.069,-0.31 0.058,-0.112 0.139,-0.201 0.241,-0.263 0.102,-0.061 0.201,-0.069 0.295,-0.021 0.358,0.184 0.776,0.437 1.254,0.759 0.478,0.321 1.05,0.653 1.717,0.995 0.633,0.325 1.196,0.577 1.693,0.758 0.497,0.179 0.937,0.368 1.322,0.566 0.102,0.052 0.159,0.136 0.17,0.251 0.011,0.115 -0.012,0.229 -0.07,0.342 C 5.511,-1.073 5.438,-0.99 5.347,-0.928 5.255,-0.865 5.154,-0.852 5.042,-0.887 4.614,-1.042 4.235,-1.167 3.905,-1.261 3.576,-1.354 3.265,-1.365 2.975,-1.293 2.684,-1.222 2.4,-1.038 2.124,-0.742 1.848,-0.446 1.549,0.013 1.228,0.636 L -3.687,10.2 c -0.071,0.136 -0.046,0.235 0.073,0.298 0.12,0.061 0.215,0.077 0.283,0.047 l 18.18,-7.59 c 0.052,-0.038 0.126,-0.045 0.223,-0.023 0.096,0.023 0.191,0.058 0.285,0.106 0.154,0.079 0.293,0.178 0.416,0.295 0.123,0.118 0.169,0.206 0.139,0.266 l -5.841,11.362 c -0.162,0.315 -0.348,0.683 -0.559,1.104 -0.211,0.421 -0.411,0.847 -0.6,1.279 -0.19,0.431 -0.356,0.843 -0.497,1.234 -0.143,0.392 -0.226,0.716 -0.249,0.973 -0.022,0.356 -0.02,0.636 0.006,0.838 0.026,0.202 0.085,0.372 0.176,0.511 0.09,0.138 0.227,0.266 0.411,0.381 0.183,0.116 0.42,0.27 0.71,0.462 0.103,0.053 0.16,0.137 0.171,0.252 0.011,0.116 -0.013,0.231 -0.071,0.343 -0.058,0.112 -0.138,0.2 -0.24,0.263 C 9.226,22.663 9.124,22.668 9.021,22.615 8.457,22.325 7.966,22.041 7.548,21.761 7.13,21.481 6.695,21.225 6.242,20.992 5.746,20.737 5.246,20.513 4.741,20.318 4.236,20.123 3.774,19.917 3.355,19.703 3.261,19.654 3.215,19.576 3.217,19.467 3.219,19.358 3.247,19.252 3.3,19.148 c 0.058,-0.113 0.133,-0.207 0.225,-0.279 0.091,-0.074 0.184,-0.087 0.278,-0.038 0.33,0.137 0.611,0.246 0.844,0.329 0.234,0.081 0.444,0.119 0.631,0.113 0.187,-0.007 0.366,-0.061 0.537,-0.162 0.17,-0.101 0.36,-0.26 0.569,-0.476 0.152,-0.15 0.318,-0.362 0.497,-0.637 0.18,-0.276 0.365,-0.576 0.555,-0.905 0.19,-0.329 0.379,-0.67 0.566,-1.022 C 8.188,15.719 8.36,15.388 8.519,15.08 L 8.842,14.452 12.149,8.018 C 12.203,7.915 12.188,7.833 12.107,7.769 12.027,7.706 11.956,7.691 11.895,7.725 l -17.044,7.148 c -0.104,0.056 -0.372,0.007 -0.8,-0.147 -0.411,-0.147 -0.858,-0.329 -1.341,-0.544 -0.492,-0.221 -0.964,-0.447 -1.417,-0.68 l -0.987,-0.507 c -0.102,-0.053 -0.155,-0.135 -0.158,-0.246 -0.002,-0.111 0.025,-0.223 0.084,-0.336 0.058,-0.112 0.132,-0.202 0.221,-0.272 0.089,-0.07 0.181,-0.079 0.276,-0.032 0.466,0.186 0.881,0.303 1.246,0.35 0.364,0.048 0.686,0.032 0.964,-0.047 0.277,-0.078 0.52,-0.214 0.728,-0.409 0.209,-0.195 0.388,-0.438 0.538,-0.728 z" /></g></g></g><text
       id="text90"
       style="font-variant:normal;font-weight:normal;font-stretch:normal;font-size:29.51811981px;font-family:'Plantagenet Cherokee';-inkscape-font-specification:PlantagenetCherokee;writing-mode:lr-tb;fill:#ffffff;fill-opacity:1;fill-rule:nonzero;stroke:none"
       transform="matrix(0.97651546,0.21544733,0.21544733,-0.97651546,99.5763,204.1473)"><tspan
         id="tspan88"
         y="0"
         x="0">A</tspan></text>
<g
       id="g92"><g
         clip-path="url(#clipPath98)"
         id="g94"><g
           transform="translate(109.9834,213.5732)"
           id="g100"><path
             id="path102"
             style="fill:none;stroke:#ffffff;stroke-width:0.5;stroke-linecap:butt;stroke-linejoin:miter;stroke-miterlimit:10;stroke-dasharray:none;stroke-opacity:1"
             d="M 0,0 C 0.366,0.08 0.639,0.105 0.817,0.076 0.996,0.046 1.16,-0.085 1.311,-0.318 1.761,-0.978 2.125,-1.525 2.402,-1.957 2.68,-2.388 2.898,-2.746 3.059,-3.026 3.218,-3.305 3.332,-3.529 3.398,-3.697 3.465,-3.865 3.513,-4.015 3.542,-4.146 3.65,-4.636 3.565,-4.989 3.289,-5.208 3.022,-5.425 2.57,-5.647 1.931,-5.877 1.795,-5.927 1.708,-5.999 1.669,-6.095 1.632,-6.19 1.625,-6.293 1.649,-6.405 1.68,-6.544 1.742,-6.657 1.834,-6.742 1.928,-6.829 2.039,-6.857 2.17,-6.828 c 0.657,0.144 1.33,0.332 2.017,0.563 0.687,0.23 1.438,0.435 2.255,0.616 0.356,0.079 0.697,0.143 1.019,0.194 0.324,0.052 0.63,0.091 0.92,0.114 0.299,0.029 0.598,0.064 0.898,0.112 0.3,0.045 0.6,0.101 0.9,0.167 0.103,0.024 0.168,0.086 0.195,0.19 0.026,0.102 0.026,0.214 0,0.333 -0.024,0.112 -0.074,0.212 -0.148,0.302 -0.074,0.091 -0.169,0.133 -0.287,0.128 C 9.665,-4.112 9.403,-4.11 9.157,-4.106 8.909,-4.102 8.656,-4.044 8.396,-3.934 8.135,-3.825 7.863,-3.641 7.58,-3.383 7.297,-3.125 6.981,-2.745 6.634,-2.24 5.827,-1.079 4.977,0.154 4.084,1.458 3.19,2.763 2.298,4.078 1.406,5.402 0.513,6.727 -0.362,8.03 -1.221,9.313 c -0.858,1.283 -1.663,2.487 -2.413,3.611 -0.195,0.124 -0.423,0.158 -0.685,0.1 -0.254,-0.056 -0.391,-0.17 -0.412,-0.342 L -7.628,-5.165 c -0.095,-0.553 -0.201,-1.008 -0.319,-1.363 -0.118,-0.356 -0.261,-0.648 -0.427,-0.877 -0.166,-0.228 -0.353,-0.416 -0.562,-0.56 -0.21,-0.144 -0.452,-0.281 -0.729,-0.411 l -0.424,-0.154 c -0.117,-0.044 -0.193,-0.115 -0.226,-0.21 -0.034,-0.094 -0.039,-0.192 -0.017,-0.294 0.029,-0.129 0.089,-0.242 0.179,-0.338 0.09,-0.096 0.191,-0.133 0.303,-0.108 0.536,0.119 1.027,0.266 1.475,0.444 0.448,0.177 0.92,0.321 1.418,0.43 0.263,0.058 0.542,0.107 0.838,0.148 0.296,0.041 0.59,0.079 0.883,0.113 0.293,0.035 0.577,0.072 0.854,0.108 0.278,0.036 0.529,0.079 0.754,0.13 0.141,0.03 0.228,0.103 0.262,0.217 0.033,0.114 0.037,0.231 0.011,0.352 -0.025,0.111 -0.076,0.211 -0.155,0.301 -0.079,0.088 -0.188,0.118 -0.329,0.086 -0.286,-0.043 -0.571,-0.069 -0.854,-0.077 -0.284,-0.008 -0.542,0.016 -0.776,0.073 -0.234,0.056 -0.433,0.156 -0.597,0.298 -0.164,0.141 -0.273,0.334 -0.327,0.578 -0.029,0.132 -0.026,0.364 0.008,0.698 l 0.545,3.685 c 0.046,0.237 0.119,0.411 0.217,0.521 0.099,0.111 0.28,0.196 0.542,0.253 z m -5.006,0.076 c -0.216,-0.048 -0.37,-0.04 -0.462,0.023 -0.094,0.063 -0.119,0.227 -0.079,0.492 l 1.144,7.323 c 0.015,0.111 0.079,0.179 0.192,0.203 0.112,0.025 0.198,-0.011 0.259,-0.105 L 0.055,1.827 C 0.198,1.622 0.23,1.464 0.151,1.354 0.073,1.242 -0.099,1.158 -0.361,1.101 Z" /></g></g></g><text
       id="text106"
       style="font-variant:normal;font-weight:normal;font-stretch:normal;font-size:29.51815796px;font-family:'Plantagenet Cherokee';-inkscape-font-specification:PlantagenetCherokee;writing-mode:lr-tb;fill:#ffffff;fill-opacity:1;fill-rule:nonzero;stroke:none"
       transform="matrix(0.98997028,-0.14127575,-0.14127575,-0.98997028,132.7293,209.0641)"><tspan
         id="tspan104"
         y="0"
         x="0">T</tspan></text>
<g
       id="g108"><g
         clip-path="url(#clipPath114)"
         id="g110"><g
           transform="translate(146.1104,224.2744)"
           id="g116"><path
             id="path118"
             style="fill:none;stroke:#ffffff;stroke-width:0.5;stroke-linecap:butt;stroke-linejoin:miter;stroke-miterlimit:10;stroke-dasharray:none;stroke-opacity:1"
             d="M 0,0 C 0.103,0.713 0.361,1.137 0.777,1.266 1.194,1.396 1.84,1.399 2.715,1.274 3.362,1.181 3.911,1.05 4.362,0.879 4.813,0.708 5.181,0.456 5.463,0.125 c 0.283,-0.333 0.486,-0.759 0.611,-1.281 0.124,-0.523 0.188,-1.181 0.191,-1.978 0.003,-0.117 0.053,-0.204 0.151,-0.262 0.099,-0.058 0.208,-0.087 0.329,-0.09 0.122,-0.003 0.234,0.021 0.339,0.074 0.104,0.053 0.163,0.117 0.173,0.194 0.017,0.396 0.043,0.81 0.076,1.241 0.032,0.433 0.077,0.853 0.136,1.261 0.058,0.411 0.127,0.784 0.204,1.122 C 7.75,0.745 7.824,1.026 7.895,1.248 7.926,1.467 7.825,1.626 7.592,1.729 7.358,1.829 7.057,1.906 6.686,1.96 L -8.938,4.189 C -9.271,4.237 -9.579,4.242 -9.86,4.204 -10.143,4.167 -10.3,4.038 -10.33,3.82 c -0.01,-0.746 -0.072,-1.494 -0.19,-2.244 -0.117,-0.751 -0.264,-1.482 -0.444,-2.194 -0.011,-0.076 0.023,-0.148 0.1,-0.218 0.078,-0.069 0.168,-0.115 0.272,-0.141 0.103,-0.023 0.211,-0.025 0.326,-0.002 0.116,0.022 0.19,0.088 0.226,0.2 0.264,0.759 0.522,1.367 0.777,1.826 0.255,0.459 0.555,0.809 0.9,1.051 0.345,0.241 0.758,0.381 1.239,0.421 0.48,0.037 1.083,0.004 1.807,-0.099 0.855,-0.123 1.451,-0.301 1.786,-0.539 0.335,-0.237 0.452,-0.714 0.349,-1.427 l -1.854,-12.995 c -0.091,-0.637 -0.198,-1.132 -0.32,-1.484 -0.124,-0.351 -0.302,-0.61 -0.535,-0.777 -0.232,-0.165 -0.533,-0.268 -0.902,-0.307 -0.37,-0.04 -0.863,-0.045 -1.479,-0.015 -0.118,-0.002 -0.212,-0.051 -0.284,-0.146 -0.071,-0.096 -0.116,-0.202 -0.133,-0.318 -0.016,-0.118 -0.003,-0.228 0.041,-0.328 0.044,-0.103 0.122,-0.162 0.237,-0.178 0.646,-0.093 1.37,-0.156 2.171,-0.194 0.8,-0.036 1.571,-0.107 2.312,-0.213 0.695,-0.099 1.394,-0.238 2.096,-0.416 0.703,-0.178 1.444,-0.322 2.225,-0.434 0.132,-0.019 0.239,0.014 0.319,0.099 0.08,0.084 0.128,0.184 0.144,0.301 0.018,0.118 -0.001,0.232 -0.051,0.345 -0.053,0.112 -0.134,0.187 -0.245,0.222 -0.62,0.147 -1.11,0.29 -1.467,0.436 -0.359,0.142 -0.626,0.325 -0.802,0.551 -0.177,0.224 -0.268,0.522 -0.273,0.891 -0.006,0.37 0.037,0.874 0.128,1.511 z" /></g></g></g><text
       id="text122"
       style="font-variant:normal;font-weight:normal;font-stretch:normal;font-size:29.51812744px;font-family:'Plantagenet Cherokee';-inkscape-font-specification:PlantagenetCherokee;writing-mode:lr-tb;fill:#ffffff;fill-opacity:1;fill-rule:nonzero;stroke:none"
       transform="matrix(0.93262015,-0.36085962,-0.36085962,-0.93262015,153.4129,205.8176)"><tspan
         id="tspan120"
         y="0"
         x="0">E</tspan></text>
<g
       id="g124"><g
         clip-path="url(#clipPath130)"
         id="g126"><g
           transform="translate(165.0322,222.5869)"
           id="g132"><path
             id="path134"
             style="fill:none;stroke:#ffffff;stroke-width:0.5;stroke-linecap:butt;stroke-linejoin:miter;stroke-miterlimit:10;stroke-dasharray:none;stroke-opacity:1"
             d="M 0,0 C -0.672,0.259 -1.249,0.499 -1.731,0.716 -2.224,0.938 -2.773,1.167 -3.383,1.402 -3.481,1.44 -3.576,1.423 -3.666,1.35 -3.757,1.276 -3.824,1.181 -3.869,1.064 -3.91,0.957 -3.923,0.852 -3.906,0.747 -3.891,0.643 -3.828,0.57 -3.721,0.528 c 0.19,-0.094 0.39,-0.202 0.601,-0.325 0.21,-0.123 0.401,-0.253 0.574,-0.392 0.296,-0.218 0.494,-0.48 0.592,-0.786 0.099,-0.307 0.134,-0.64 0.108,-1 -0.027,-0.362 -0.101,-0.742 -0.226,-1.143 -0.124,-0.401 -0.264,-0.803 -0.42,-1.206 l -4.102,-10.601 c -0.174,-0.449 -0.368,-0.804 -0.583,-1.066 -0.215,-0.263 -0.463,-0.45 -0.743,-0.564 -0.28,-0.113 -0.601,-0.159 -0.958,-0.139 -0.358,0.02 -0.763,0.087 -1.213,0.199 -0.133,0.03 -0.241,0.012 -0.324,-0.057 -0.084,-0.07 -0.144,-0.154 -0.182,-0.251 -0.048,-0.123 -0.059,-0.246 -0.034,-0.367 0.026,-0.121 0.097,-0.205 0.212,-0.25 0.553,-0.171 1.169,-0.369 1.851,-0.591 0.68,-0.223 1.371,-0.47 2.07,-0.739 l 9.988,-3.865 c 0.134,-0.053 0.249,-0.078 0.347,-0.081 0.097,-10e-4 0.176,0.01 0.236,0.032 0.061,0.024 0.107,0.054 0.137,0.094 0.031,0.04 0.051,0.073 0.062,0.099 0.252,0.707 0.545,1.376 0.878,2.011 0.332,0.634 0.695,1.322 1.085,2.067 0.057,0.092 0.042,0.185 -0.045,0.281 -0.086,0.095 -0.197,0.168 -0.332,0.22 -0.125,0.049 -0.248,0.071 -0.369,0.066 -0.12,-0.005 -0.208,-0.052 -0.263,-0.145 -0.285,-0.518 -0.554,-0.934 -0.809,-1.247 -0.255,-0.315 -0.521,-0.551 -0.8,-0.712 -0.278,-0.159 -0.582,-0.264 -0.909,-0.312 -0.328,-0.049 -0.697,-0.07 -1.107,-0.067 -0.225,0.005 -0.536,0.064 -0.93,0.175 -0.395,0.112 -0.82,0.256 -1.277,0.432 -0.852,0.33 -1.518,0.627 -1.998,0.89 -0.481,0.263 -0.805,0.568 -0.974,0.918 -0.169,0.348 -0.198,0.78 -0.087,1.292 0.111,0.514 0.33,1.191 0.655,2.035 l 1.4,3.615 c 0.076,0.196 0.172,0.311 0.287,0.344 0.116,0.033 0.219,0.032 0.308,-0.002 0.852,-0.33 1.506,-0.621 1.964,-0.876 0.458,-0.255 0.774,-0.524 0.947,-0.807 0.174,-0.284 0.24,-0.608 0.196,-0.973 -0.043,-0.364 -0.142,-0.825 -0.296,-1.384 -0.017,-0.097 0.013,-0.186 0.09,-0.267 0.077,-0.081 0.174,-0.145 0.29,-0.189 0.107,-0.042 0.215,-0.058 0.322,-0.047 0.106,0.009 0.178,0.06 0.212,0.15 0.125,0.322 0.233,0.622 0.325,0.9 0.093,0.28 0.165,0.538 0.216,0.776 0.115,0.46 0.283,0.972 0.502,1.537 0.124,0.322 0.244,0.605 0.359,0.85 0.115,0.244 0.228,0.475 0.339,0.694 0.111,0.22 0.219,0.441 0.326,0.663 0.106,0.222 0.216,0.48 0.33,0.776 0.039,0.098 0.027,0.188 -0.034,0.268 C 5.011,-8.458 4.927,-8.396 4.819,-8.356 4.702,-8.311 4.583,-8.292 4.461,-8.302 4.339,-8.312 4.25,-8.362 4.194,-8.453 3.952,-8.917 3.728,-9.291 3.52,-9.576 3.312,-9.862 3.048,-10.05 2.729,-10.144 c -0.32,-0.091 -0.736,-0.083 -1.25,0.029 -0.512,0.11 -1.196,0.331 -2.046,0.661 -0.09,0.034 -0.167,0.1 -0.233,0.198 -0.065,0.097 -0.048,0.275 0.053,0.535 l 1.862,4.813 c 0.18,0.465 0.337,0.819 0.473,1.061 0.134,0.242 0.298,0.391 0.491,0.451 0.192,0.059 0.441,0.04 0.743,-0.055 0.303,-0.097 0.719,-0.248 1.247,-0.453 L 5.722,-3.543 C 6.361,-3.811 6.864,-4.046 7.233,-4.251 7.603,-4.456 7.865,-4.709 8.021,-5.012 8.177,-5.315 8.243,-5.696 8.22,-6.154 8.196,-6.615 8.111,-7.223 7.963,-7.98 7.949,-8.067 7.978,-8.145 8.05,-8.215 c 0.07,-0.068 0.155,-0.121 0.255,-0.16 0.106,-0.041 0.216,-0.061 0.325,-0.057 0.11,0.005 0.179,0.042 0.206,0.115 0.145,0.375 0.279,0.759 0.399,1.15 0.12,0.392 0.259,0.789 0.415,1.193 l 0.171,0.443 c 0.074,0.189 0.146,0.366 0.216,0.535 0.069,0.168 0.147,0.319 0.229,0.453 0.132,0.236 0.135,0.405 0.01,0.506 -0.103,0.081 -0.234,0.152 -0.396,0.214 z" /></g></g></g><text
       id="text138"
       style="font-variant:normal;font-weight:normal;font-stretch:normal;font-size:29.51813126px;font-family:'Plantagenet Cherokee';-inkscape-font-specification:PlantagenetCherokee;writing-mode:lr-tb;fill:#ffffff;fill-opacity:1;fill-rule:nonzero;stroke:none"
       transform="matrix(0.82599742,-0.5636739,-0.5636739,-0.82599742,171.6655,198.6459)"><tspan
         id="tspan136"
         y="0"
         x="0">R</tspan></text>
<g
       id="g140"><g
         clip-path="url(#clipPath146)"
         id="g142"><g
           transform="translate(177.125,199.5127)"
           id="g148"><path
             id="path150"
             style="fill:none;stroke:#ffffff;stroke-width:0.5;stroke-linecap:butt;stroke-linejoin:miter;stroke-miterlimit:10;stroke-dasharray:none;stroke-opacity:1"
             d="m 0,0 c -0.325,-0.478 -0.62,-0.847 -0.886,-1.107 -0.265,-0.261 -0.54,-0.424 -0.821,-0.487 -0.282,-0.065 -0.597,-0.039 -0.943,0.074 -0.347,0.116 -0.766,0.306 -1.259,0.573 -0.122,0.059 -0.232,0.066 -0.328,0.016 -0.097,-0.047 -0.178,-0.119 -0.242,-0.213 -0.075,-0.108 -0.115,-0.222 -0.119,-0.34 -0.005,-0.117 0.041,-0.208 0.137,-0.273 0.57,-0.389 1.178,-0.757 1.82,-1.103 0.643,-0.346 1.274,-0.73 1.893,-1.152 0.294,-0.2 0.582,-0.412 0.866,-0.634 0.284,-0.225 0.577,-0.456 0.878,-0.696 0.302,-0.241 0.622,-0.491 0.961,-0.752 0.34,-0.261 0.713,-0.529 1.117,-0.806 0.112,-0.076 0.223,-0.091 0.334,-0.047 0.112,0.045 0.202,0.117 0.272,0.219 0.069,0.101 0.108,0.213 0.115,0.334 0.007,0.122 -0.042,0.218 -0.145,0.288 -0.415,0.329 -0.761,0.647 -1.041,0.955 -0.278,0.307 -0.466,0.632 -0.562,0.978 -0.096,0.345 -0.086,0.726 0.029,1.142 0.115,0.417 0.361,0.899 0.736,1.448 L 5.058,1.708 C 5.291,2.05 5.544,2.213 5.817,2.194 6.09,2.178 6.365,2.074 6.644,1.885 7.469,1.321 7.955,0.652 8.101,-0.122 8.253,-0.889 8.124,-1.895 7.717,-3.141 7.606,-3.438 7.482,-3.769 7.344,-4.134 7.205,-4.499 7.064,-4.876 6.92,-5.267 6.775,-5.656 6.638,-6.046 6.508,-6.434 6.377,-6.82 6.271,-7.185 6.189,-7.525 6.115,-7.788 6.096,-8.052 6.132,-8.314 c 0.035,-0.262 0.115,-0.521 0.239,-0.774 0.123,-0.253 0.286,-0.489 0.485,-0.707 0.201,-0.218 0.432,-0.416 0.694,-0.596 0.309,-0.211 0.651,-0.38 1.024,-0.505 0.373,-0.127 0.753,-0.184 1.141,-0.169 0.389,0.014 0.771,0.107 1.15,0.279 0.38,0.172 0.731,0.443 1.055,0.816 0.081,0.084 0.097,0.201 0.048,0.352 -0.049,0.149 -0.134,0.265 -0.252,0.346 -0.079,0.053 -0.164,0.083 -0.255,0.086 -0.091,0.005 -0.186,-0.042 -0.285,-0.136 -0.323,-0.268 -0.628,-0.422 -0.915,-0.458 -0.286,-0.037 -0.53,0.012 -0.728,0.148 -0.19,0.13 -0.324,0.343 -0.4,0.64 -0.078,0.297 -0.026,0.662 0.155,1.097 0.143,0.38 0.299,0.762 0.468,1.147 0.17,0.384 0.322,0.774 0.459,1.171 0.136,0.395 0.245,0.803 0.329,1.223 0.083,0.419 0.112,0.865 0.09,1.333 -0.023,0.471 -0.112,0.968 -0.266,1.491 C 10.214,-1.006 9.97,-0.444 9.635,0.158 9.566,0.296 9.559,0.404 9.61,0.479 9.662,0.555 9.754,0.57 9.887,0.525 10.486,0.28 11.078,0.106 11.66,0.005 c 0.582,-0.1 1.15,-0.102 1.701,0 0.551,0.101 1.077,0.316 1.575,0.644 0.497,0.33 0.958,0.804 1.38,1.423 0.537,0.785 0.838,1.553 0.909,2.303 0.068,0.749 -0.028,1.466 -0.287,2.149 -0.26,0.684 -0.654,1.319 -1.178,1.904 -0.527,0.585 -1.118,1.103 -1.778,1.552 -0.586,0.401 -1.21,0.81 -1.869,1.224 -0.328,0.2 -0.695,0.434 -1.101,0.699 -0.407,0.266 -0.859,0.563 -1.356,0.891 -0.294,0.2 -0.567,0.392 -0.819,0.577 C 8.584,13.554 8.352,13.73 8.141,13.897 7.93,14.065 7.705,14.236 7.469,14.409 7.231,14.582 6.975,14.764 6.696,14.952 6.594,15.023 6.49,15.032 6.386,14.982 6.281,14.931 6.196,14.859 6.131,14.762 6.066,14.667 6.03,14.563 6.023,14.452 6.018,14.34 6.065,14.249 6.169,14.179 6.333,14.043 6.503,13.893 6.68,13.725 6.856,13.558 7.013,13.387 7.149,13.212 7.389,12.933 7.521,12.631 7.543,12.307 7.566,11.982 7.521,11.643 7.408,11.29 7.295,10.937 7.133,10.579 6.92,10.216 6.708,9.854 6.483,9.5 6.244,9.15 Z m 10.201,9.246 c 0.347,0.508 0.671,0.77 0.972,0.785 0.312,0.032 0.79,-0.172 1.432,-0.611 C 13.185,9.024 13.64,8.63 13.97,8.235 14.301,7.842 14.501,7.428 14.572,6.995 14.645,6.563 14.59,6.094 14.413,5.586 14.235,5.08 13.933,4.512 13.506,3.884 13.062,3.234 12.633,2.722 12.22,2.346 11.807,1.97 11.374,1.73 10.924,1.625 10.474,1.518 9.993,1.55 9.479,1.72 8.968,1.889 8.394,2.191 7.759,2.624 7.282,2.95 6.95,3.229 6.761,3.462 6.579,3.691 6.632,4.016 6.919,4.436 Z" /></g></g></g><text
       id="text154"
       style="font-variant:normal;font-weight:normal;font-stretch:normal;font-size:29.51811409px;font-family:'Plantagenet Cherokee';-inkscape-font-specification:PlantagenetCherokee;writing-mode:lr-tb;fill:#ffffff;fill-opacity:1;fill-rule:nonzero;stroke:none"
       transform="matrix(0.66842008,-0.74378397,-0.74378397,-0.66842008,189.4008,186.2799)"><tspan
         id="tspan152"
         y="0"
         x="0">R</tspan></text>
<g
       id="g156"><g
         clip-path="url(#clipPath162)"
         id="g158"><g
           transform="translate(194.9102,185.8247)"
           id="g164"><path
             id="path166"
             style="fill:none;stroke:#ffffff;stroke-width:0.5;stroke-linecap:butt;stroke-linejoin:miter;stroke-miterlimit:10;stroke-dasharray:none;stroke-opacity:1"
             d="m 0,0 c -0.43,-0.386 -0.805,-0.674 -1.124,-0.865 -0.319,-0.191 -0.624,-0.283 -0.913,-0.278 -0.29,0.005 -0.589,0.103 -0.899,0.297 -0.309,0.194 -0.671,0.478 -1.086,0.855 -0.105,0.087 -0.21,0.118 -0.316,0.095 -0.105,-0.024 -0.2,-0.075 -0.285,-0.15 -0.099,-0.088 -0.164,-0.19 -0.196,-0.302 -0.033,-0.113 -0.009,-0.213 0.068,-0.298 0.462,-0.516 0.964,-1.016 1.506,-1.506 0.542,-0.487 1.063,-1.01 1.564,-1.568 0.239,-0.263 0.468,-0.538 0.692,-0.822 0.223,-0.284 0.452,-0.579 0.687,-0.883 0.236,-0.306 0.488,-0.626 0.755,-0.96 0.269,-0.333 0.566,-0.682 0.894,-1.047 0.09,-0.101 0.194,-0.143 0.313,-0.126 0.118,0.016 0.224,0.066 0.316,0.147 0.091,0.083 0.155,0.182 0.191,0.299 0.035,0.115 0.012,0.22 -0.072,0.313 -0.325,0.419 -0.586,0.811 -0.784,1.175 -0.199,0.365 -0.303,0.726 -0.315,1.084 -0.011,0.357 0.089,0.726 0.301,1.102 0.21,0.378 0.562,0.788 1.057,1.232 L 5.318,0.458 C 5.626,0.735 5.91,0.832 6.172,0.75 6.433,0.668 6.676,0.502 6.9,0.252 7.568,-0.491 7.881,-1.256 7.84,-2.043 7.805,-2.824 7.441,-3.771 6.749,-4.883 6.572,-5.147 6.372,-5.438 6.151,-5.76 5.93,-6.082 5.703,-6.414 5.47,-6.759 5.237,-7.104 5.012,-7.449 4.792,-7.795 4.572,-8.141 4.384,-8.469 4.225,-8.78 4.089,-9.018 4.008,-9.27 3.98,-9.532 c -0.028,-0.265 -0.011,-0.534 0.049,-0.81 0.06,-0.274 0.161,-0.543 0.304,-0.802 0.143,-0.258 0.32,-0.506 0.532,-0.743 0.25,-0.278 0.542,-0.523 0.874,-0.735 0.332,-0.211 0.689,-0.357 1.07,-0.435 0.379,-0.077 0.774,-0.079 1.183,-0.002 0.408,0.077 0.815,0.258 1.217,0.543 0.1,0.062 0.143,0.173 0.131,0.329 -0.012,0.158 -0.067,0.289 -0.162,0.397 -0.065,0.072 -0.141,0.12 -0.228,0.144 -0.088,0.026 -0.19,0.003 -0.309,-0.064 -0.378,-0.184 -0.71,-0.261 -0.998,-0.228 -0.288,0.033 -0.511,0.138 -0.671,0.316 -0.156,0.172 -0.234,0.411 -0.239,0.717 -0.003,0.306 0.134,0.65 0.413,1.03 0.229,0.334 0.471,0.669 0.727,1.002 0.256,0.333 0.497,0.676 0.724,1.028 0.226,0.352 0.429,0.722 0.61,1.111 0.181,0.388 0.315,0.813 0.405,1.274 0.089,0.461 0.12,0.965 0.096,1.51 -0.026,0.546 -0.13,1.15 -0.312,1.814 -0.033,0.151 -0.015,0.258 0.053,0.319 0.069,0.06 0.161,0.053 0.28,-0.021 0.523,-0.382 1.056,-0.691 1.598,-0.928 0.542,-0.235 1.093,-0.371 1.652,-0.403 0.56,-0.034 1.121,0.05 1.683,0.252 0.562,0.2 1.121,0.552 1.679,1.053 0.707,0.636 1.183,1.309 1.429,2.021 0.246,0.711 0.324,1.43 0.233,2.157 -0.091,0.726 -0.321,1.435 -0.692,2.128 -0.373,0.694 -0.825,1.338 -1.357,1.93 -0.475,0.529 -0.984,1.073 -1.526,1.633 -0.272,0.273 -0.573,0.586 -0.905,0.942 -0.331,0.354 -0.699,0.749 -1.104,1.186 -0.237,0.264 -0.458,0.517 -0.659,0.755 -0.201,0.238 -0.386,0.465 -0.55,0.678 -0.167,0.212 -0.344,0.431 -0.532,0.655 -0.19,0.225 -0.396,0.462 -0.62,0.712 C 9.974,13.026 9.875,13.06 9.762,13.035 9.648,13.011 9.549,12.96 9.463,12.883 9.377,12.806 9.318,12.714 9.285,12.607 9.252,12.5 9.277,12.4 9.36,12.307 c 0.127,-0.17 0.257,-0.356 0.389,-0.562 0.132,-0.204 0.243,-0.408 0.335,-0.61 0.166,-0.327 0.222,-0.653 0.167,-0.973 C 10.196,9.841 10.072,9.523 9.878,9.206 9.685,8.89 9.441,8.582 9.149,8.28 8.857,7.979 8.555,7.687 8.239,7.404 Z m 12.105,6.558 c 0.458,0.41 0.834,0.588 1.131,0.531 0.31,-0.044 0.727,-0.355 1.246,-0.934 C 14.951,5.633 15.299,5.141 15.526,4.68 15.754,4.219 15.851,3.771 15.816,3.333 15.783,2.896 15.62,2.452 15.327,2.001 15.034,1.551 14.605,1.072 14.041,0.566 13.455,0.039 12.917,-0.358 12.426,-0.625 c -0.49,-0.266 -0.967,-0.397 -1.429,-0.393 -0.463,0.004 -0.923,0.15 -1.38,0.437 C 9.159,-0.295 8.674,0.133 8.16,0.706 7.774,1.134 7.518,1.486 7.39,1.757 7.268,2.022 7.396,2.325 7.774,2.665 Z" /></g></g></g><text
       id="text170"
       style="font-variant:normal;font-weight:normal;font-stretch:normal;font-size:29.51817131px;font-family:'Plantagenet Cherokee';-inkscape-font-specification:PlantagenetCherokee;writing-mode:lr-tb;fill:#ffffff;fill-opacity:1;fill-rule:nonzero;stroke:none"
       transform="matrix(0.46195274,-0.88690454,-0.88690454,-0.46195274,203.7639,170.1397)"><tspan
         id="tspan168"
         y="0"
         x="0">A</tspan></text>
<g
       id="g172"><g
         clip-path="url(#clipPath178)"
         id="g174"><g
           transform="translate(215.5713,162.541)"
           id="g180"><path
             id="path182"
             style="fill:none;stroke:#ffffff;stroke-width:0.5;stroke-linecap:butt;stroke-linejoin:miter;stroke-miterlimit:10;stroke-dasharray:none;stroke-opacity:1"
             d="M 0,0 C 0.173,-0.332 0.269,-0.588 0.286,-0.768 0.304,-0.95 0.22,-1.142 0.034,-1.347 -0.486,-1.954 -0.919,-2.447 -1.264,-2.828 -1.609,-3.208 -1.896,-3.512 -2.125,-3.739 -2.354,-3.967 -2.541,-4.135 -2.686,-4.242 -2.83,-4.35 -2.963,-4.436 -3.082,-4.498 -3.526,-4.729 -3.89,-4.74 -4.173,-4.53 c -0.279,0.202 -0.612,0.581 -0.999,1.138 -0.084,0.119 -0.177,0.184 -0.278,0.196 -0.103,0.011 -0.204,-0.009 -0.305,-0.061 -0.126,-0.066 -0.219,-0.155 -0.278,-0.267 -0.059,-0.112 -0.058,-0.228 0.005,-0.348 0.31,-0.595 0.667,-1.196 1.067,-1.799 0.401,-0.604 0.795,-1.276 1.181,-2.018 0.169,-0.324 0.32,-0.634 0.454,-0.933 0.134,-0.299 0.251,-0.585 0.35,-0.858 0.103,-0.281 0.216,-0.562 0.339,-0.84 0.123,-0.277 0.255,-0.552 0.398,-0.825 0.048,-0.093 0.126,-0.139 0.231,-0.138 0.107,10e-4 0.214,0.03 0.324,0.086 0.101,0.053 0.185,0.127 0.252,0.222 0.069,0.095 0.084,0.199 0.048,0.309 -0.073,0.266 -0.139,0.517 -0.2,0.758 -0.06,0.238 -0.07,0.499 -0.031,0.779 0.038,0.279 0.144,0.591 0.32,0.93 0.175,0.34 0.461,0.744 0.858,1.212 0.911,1.08 1.88,2.223 2.908,3.424 1.027,1.201 2.064,2.405 3.111,3.611 1.047,1.206 2.078,2.39 3.094,3.553 1.014,1.162 1.968,2.253 2.859,3.269 0.069,0.22 0.042,0.449 -0.083,0.688 -0.119,0.23 -0.264,0.333 -0.436,0.309 L -6.97,6.022 C -7.529,5.971 -7.995,5.955 -8.369,5.977 -8.744,5.999 -9.063,6.06 -9.327,6.16 c -0.264,0.102 -0.493,0.234 -0.687,0.399 -0.194,0.164 -0.39,0.362 -0.587,0.595 l -0.257,0.37 c -0.075,0.103 -0.163,0.157 -0.262,0.164 -0.1,0.008 -0.196,-0.012 -0.289,-0.06 -0.117,-0.062 -0.211,-0.149 -0.28,-0.261 -0.07,-0.112 -0.079,-0.22 -0.025,-0.322 0.252,-0.484 0.524,-0.921 0.811,-1.308 0.288,-0.385 0.549,-0.804 0.785,-1.256 0.124,-0.24 0.244,-0.496 0.36,-0.771 0.117,-0.274 0.23,-0.549 0.34,-0.824 0.109,-0.272 0.218,-0.538 0.325,-0.796 0.108,-0.258 0.215,-0.489 0.322,-0.694 0.066,-0.128 0.16,-0.193 0.278,-0.196 0.119,-0.004 0.233,0.024 0.343,0.08 0.099,0.053 0.183,0.129 0.249,0.228 0.066,0.098 0.065,0.213 -0.001,0.341 -0.117,0.263 -0.215,0.531 -0.297,0.803 -0.081,0.273 -0.125,0.528 -0.132,0.769 -0.006,0.24 0.039,0.458 0.133,0.654 0.093,0.195 0.252,0.35 0.473,0.467 0.12,0.061 0.345,0.12 0.676,0.173 l 3.7,0.432 c 0.242,0.017 0.427,-0.008 0.56,-0.075 0.132,-0.066 0.261,-0.218 0.386,-0.457 z M -1.228,4.853 C -1.33,5.049 -1.362,5.2 -1.326,5.307 -1.29,5.413 -1.138,5.479 -0.872,5.51 l 7.368,0.8 C 6.608,6.324 6.69,6.28 6.744,6.178 6.797,6.075 6.786,5.983 6.71,5.9 L 1.778,0.423 C 1.618,0.231 1.475,0.159 1.347,0.207 1.219,0.254 1.093,0.396 0.969,0.635 Z" /></g></g></g><text
       id="text186"
       style="font-variant:normal;font-weight:normal;font-stretch:normal;font-size:29.51815987px;font-family:'Plantagenet Cherokee';-inkscape-font-specification:PlantagenetCherokee;writing-mode:lr-tb;fill:#ffffff;fill-opacity:1;fill-rule:nonzero;stroke:none"
       transform="matrix(0.23698293,-0.97151381,-0.97151381,-0.23698293,214.1879,149.1323)"><tspan
         id="tspan184"
         y="0"
         x="0">E</tspan></text>
<g
       id="g188"><g
         clip-path="url(#clipPath194)"
         id="g190"><g
           transform="translate(234.5889,149.1831)"
           id="g196"><path
             id="path198"
             style="fill:none;stroke:#ffffff;stroke-width:0.5;stroke-linecap:butt;stroke-linejoin:miter;stroke-miterlimit:10;stroke-dasharray:none;stroke-opacity:1"
             d="M 0,0 C -0.17,0.7 -0.304,1.311 -0.401,1.832 -0.501,2.36 -0.628,2.942 -0.783,3.578 -0.808,3.681 -0.877,3.748 -0.988,3.78 -1.1,3.812 -1.216,3.813 -1.338,3.784 -1.449,3.756 -1.543,3.706 -1.62,3.632 -1.696,3.56 -1.721,3.468 -1.693,3.355 -1.662,3.146 -1.636,2.919 -1.616,2.677 -1.598,2.435 -1.595,2.202 -1.61,1.981 -1.619,1.613 -1.722,1.301 -1.917,1.046 -2.111,0.791 -2.365,0.571 -2.677,0.387 -2.987,0.202 -3.343,0.045 -3.743,-0.082 c -0.4,-0.127 -0.809,-0.242 -1.23,-0.345 L -16.016,-3.12 c -0.466,-0.114 -0.87,-0.158 -1.207,-0.132 -0.338,0.027 -0.633,0.123 -0.887,0.289 -0.253,0.165 -0.474,0.401 -0.662,0.705 -0.189,0.305 -0.366,0.675 -0.53,1.11 -0.051,0.127 -0.129,0.204 -0.233,0.232 -0.105,0.03 -0.207,0.032 -0.309,0.008 -0.128,-0.032 -0.236,-0.093 -0.321,-0.182 -0.085,-0.09 -0.112,-0.197 -0.083,-0.318 0.175,-0.551 0.365,-1.17 0.571,-1.856 0.208,-0.687 0.4,-1.393 0.577,-2.121 l 2.538,-10.405 c 0.035,-0.139 0.079,-0.25 0.133,-0.331 0.054,-0.08 0.108,-0.139 0.161,-0.175 0.054,-0.037 0.106,-0.057 0.156,-0.06 0.05,-10e-4 0.089,0.001 0.117,0.007 0.724,0.198 1.439,0.339 2.15,0.429 0.711,0.088 1.483,0.185 2.319,0.291 0.106,0.006 0.173,0.072 0.203,0.197 0.028,0.127 0.026,0.259 -0.008,0.399 -0.032,0.131 -0.085,0.244 -0.157,0.34 -0.074,0.095 -0.163,0.141 -0.271,0.134 -0.588,-0.064 -1.083,-0.081 -1.485,-0.051 -0.403,0.03 -0.75,0.114 -1.041,0.251 -0.29,0.137 -0.549,0.326 -0.777,0.568 -0.226,0.241 -0.456,0.532 -0.686,0.87 -0.125,0.187 -0.255,0.475 -0.389,0.862 -0.134,0.388 -0.259,0.82 -0.376,1.296 -0.216,0.887 -0.353,1.603 -0.412,2.147 -0.058,0.545 0.007,0.987 0.197,1.324 0.189,0.338 0.527,0.607 1.011,0.811 0.486,0.202 1.166,0.41 2.043,0.625 l 3.768,0.918 c 0.204,0.049 0.353,0.036 0.447,-0.039 0.092,-0.077 0.149,-0.161 0.173,-0.255 0.217,-0.887 0.351,-1.591 0.404,-2.112 0.053,-0.521 0.012,-0.934 -0.121,-1.239 -0.134,-0.304 -0.362,-0.542 -0.685,-0.716 -0.325,-0.173 -0.76,-0.356 -1.306,-0.548 -0.089,-0.042 -0.144,-0.117 -0.167,-0.226 -0.024,-0.11 -0.02,-0.225 0.01,-0.347 0.028,-0.112 0.076,-0.208 0.145,-0.29 0.069,-0.082 0.151,-0.113 0.244,-0.089 0.337,0.081 0.645,0.164 0.926,0.248 0.281,0.084 0.534,0.172 0.759,0.266 0.443,0.167 0.96,0.324 1.547,0.467 0.337,0.082 0.637,0.146 0.904,0.191 0.266,0.044 0.521,0.085 0.764,0.119 0.244,0.035 0.487,0.072 0.729,0.111 0.243,0.04 0.519,0.097 0.826,0.172 0.103,0.026 0.169,0.086 0.201,0.183 0.031,0.096 0.033,0.201 0.005,0.312 -0.03,0.122 -0.084,0.23 -0.161,0.325 -0.078,0.095 -0.17,0.138 -0.277,0.133 -0.518,-0.068 -0.953,-0.097 -1.306,-0.089 -0.353,0.008 -0.659,0.116 -0.918,0.325 -0.258,0.208 -0.489,0.555 -0.691,1.04 -0.202,0.484 -0.411,1.171 -0.628,2.058 -0.022,0.093 -0.013,0.194 0.03,0.304 0.042,0.108 0.198,0.197 0.469,0.263 l 5.014,1.222 c 0.485,0.119 0.865,0.192 1.14,0.219 0.276,0.028 0.492,-0.02 0.652,-0.145 0.158,-0.124 0.285,-0.339 0.379,-0.642 0.093,-0.304 0.208,-0.731 0.342,-1.282 l 0.42,-1.721 c 0.145,-0.678 0.24,-1.225 0.282,-1.645 0.043,-0.42 -0.015,-0.78 -0.173,-1.082 -0.16,-0.3 -0.434,-0.573 -0.825,-0.817 -0.39,-0.242 -0.939,-0.52 -1.644,-0.831 -0.079,-0.038 -0.127,-0.107 -0.143,-0.205 -0.016,-0.097 -0.01,-0.198 0.014,-0.301 0.027,-0.111 0.074,-0.211 0.141,-0.299 0.065,-0.088 0.135,-0.122 0.21,-0.105 0.392,0.096 0.783,0.207 1.173,0.331 0.39,0.125 0.795,0.239 1.215,0.341 l 0.462,0.113 c 0.195,0.047 0.383,0.091 0.562,0.129 0.178,0.039 0.345,0.062 0.503,0.07 0.269,0.027 0.41,0.122 0.421,0.281 0.006,0.132 -0.01,0.28 -0.051,0.448 z" /></g></g></g></g></svg>